<svg width="30" height="30" viewBox="0 0 30 30" fill="none" xmlns="http://www.w3.org/2000/svg">
<path d="M24.05 6.97495H23.55L19.325 2.74995C18.9875 2.41245 18.4375 2.41245 18.0875 2.74995C17.75 3.08745 17.75 3.63745 18.0875 3.98745L21.075 6.97495H8.925L11.9125 3.98745C12.25 3.64995 12.25 3.09995 11.9125 2.74995C11.575 2.41245 11.025 2.41245 10.675 2.74995L6.4625 6.97495H5.9625C4.8375 6.97495 2.5 6.97495 2.5 10.175C2.5 11.3875 2.75 12.1875 3.275 12.7125C3.575 13.025 3.9375 13.1875 4.325 13.275C4.6875 13.3625 5.075 13.375 5.45 13.375H24.55C24.9375 13.375 25.3 13.35 25.65 13.275C26.7 13.025 27.5 12.275 27.5 10.175C27.5 6.97495 25.1625 6.97495 24.05 6.97495Z" fill="#292D32"/>
<path d="M23.8126 15H6.08757C5.31257 15 4.72507 15.6875 4.85007 16.45L5.90007 22.875C6.25007 25.025 7.18757 27.5 11.3501 27.5H18.3626C22.5751 27.5 23.3251 25.3875 23.7751 23.025L25.0376 16.4875C25.1876 15.7125 24.6001 15 23.8126 15ZM13.2626 23.0625C13.2626 23.55 12.8751 23.9375 12.4001 23.9375C11.9126 23.9375 11.5251 23.55 11.5251 23.0625V18.9375C11.5251 18.4625 11.9126 18.0625 12.4001 18.0625C12.8751 18.0625 13.2626 18.4625 13.2626 18.9375V23.0625ZM18.6126 23.0625C18.6126 23.55 18.2251 23.9375 17.7376 23.9375C17.2626 23.9375 16.8626 23.55 16.8626 23.0625V18.9375C16.8626 18.4625 17.2626 18.0625 17.7376 18.0625C18.2251 18.0625 18.6126 18.4625 18.6126 18.9375V23.0625Z" fill="#292D32"/>
</svg>
