<svg width="30" height="30" viewBox="0 0 30 30" fill="none" xmlns="http://www.w3.org/2000/svg">
  <path d="M26.1125 16.25V17.5H25.025C24.1 17.5 23.35 18.25 23.35 19.1875V19.5625C23.35 20.5 22.6 21.25 21.6625 21.25C20.7375 21.25 19.9875 20.5 19.9875 19.5625V19.1875C19.9875 18.25 19.225 17.5 18.3 17.5C17.375 17.5 16.625 18.25 16.625 19.1875V19.5625C16.625 20.5 15.8625 21.25 14.9375 21.25C14.0125 21.25 13.25 20.5 13.25 19.5625V19.1875C13.25 18.25 12.5 17.5 11.575 17.5C10.65 17.5 9.88751 18.25 9.88751 19.1875V19.5625C9.88751 20.5 9.13751 21.25 8.21251 21.25C7.27501 21.25 6.52501 20.5 6.52501 19.5625V19.1625C6.52501 18.2375 5.78751 17.4875 4.87501 17.475H3.88751V16.25C3.88751 14.525 5.18751 13.0625 6.95001 12.6375C7.30001 12.55 7.66251 12.5 8.05001 12.5H21.95C22.3375 12.5 22.7 12.55 23.05 12.6375C24.8125 13.0625 26.1125 14.525 26.1125 16.25Z" fill="#580A88"/>
  <path d="M23.05 8.9625V10.725C22.6875 10.65 22.325 10.625 21.95 10.625H8.05001C7.67501 10.625 7.31251 10.6625 6.95001 10.7375V8.9625C6.95001 7.4625 8.30001 6.25 9.97501 6.25H20.025C21.7 6.25 23.05 7.4625 23.05 8.9625Z" fill="#580A88"/>
  <path d="M10.9375 4.4375V6.2625H9.975C9.65 6.2625 9.35 6.3 9.0625 6.375V4.4375C9.0625 4 9.4875 3.625 10 3.625C10.5125 3.625 10.9375 4 10.9375 4.4375Z" fill="#580A88"/>
  <path d="M20.9375 4.16251V6.37501C20.65 6.28751 20.35 6.25001 20.025 6.25001H19.0625V4.16251C19.0625 3.65001 19.4875 3.22501 20 3.22501C20.5125 3.22501 20.9375 3.65001 20.9375 4.16251Z" fill="#580A88"/>
  <path d="M15.9375 3.525V6.25H14.0625V3.525C14.0625 2.9625 14.4875 2.5 15 2.5C15.5125 2.5 15.9375 2.9625 15.9375 3.525Z" fill="#580A88"/>
  <path d="M27.5 26.5625C27.5 27.075 27.075 27.5 26.5625 27.5H3.4375C2.925 27.5 2.5 27.075 2.5 26.5625C2.5 26.05 2.925 25.625 3.4375 25.625H3.8875V19.35H4.65V19.4375C4.65 21.1125 5.75 22.6625 7.3875 23.025C8.6625 23.325 9.875 22.9125 10.7 22.1C11.175 21.625 11.95 21.6125 12.425 22.0875C13.075 22.725 13.9625 23.125 14.9375 23.125C15.9125 23.125 16.8 22.7375 17.45 22.0875C17.925 21.625 18.6875 21.625 19.175 22.1C19.9875 22.9125 21.2 23.325 22.4875 23.025C24.125 22.6625 25.225 21.1125 25.225 19.4375V19.375H26.1125V25.625H26.5625C27.075 25.625 27.5 26.05 27.5 26.5625Z" fill="#580A88"/>
</svg>
