<svg width="30" height="30" viewBox="0 0 30 30" fill="none" xmlns="http://www.w3.org/2000/svg">
<path d="M23.0875 21.0375L23.575 24.9875C23.7 26.025 22.5875 26.75 21.7 26.2125L17.375 23.6375C17.075 23.4625 17 23.0875 17.1625 22.7875C17.7875 21.6375 18.125 20.3375 18.125 19.0375C18.125 14.4625 14.2 10.7375 9.37499 10.7375C8.38749 10.7375 7.42499 10.8875 6.52499 11.1875C6.06249 11.3375 5.61249 10.9125 5.72499 10.4375C6.86249 5.8875 11.2375 2.5 16.4625 2.5C22.5625 2.5 27.5 7.1125 27.5 12.8C27.5 16.175 25.7625 19.1625 23.0875 21.0375Z" fill="#35383F"/>
<path d="M16.25 19.0375C16.25 20.525 15.7 21.9 14.775 22.9875C13.5375 24.4875 11.575 25.45 9.375 25.45L6.1125 27.3875C5.5625 27.725 4.8625 27.2625 4.9375 26.625L5.25 24.1625C3.575 23 2.5 21.1375 2.5 19.0375C2.5 16.8375 3.675 14.9 5.475 13.75C6.5875 13.025 7.925 12.6125 9.375 12.6125C13.175 12.6125 16.25 15.4875 16.25 19.0375Z" fill="#35383F"/>
</svg>
