<svg width="20" height="20" viewBox="0 0 20 20" fill="none" xmlns="http://www.w3.org/2000/svg">
<path d="M15.3916 14.025L15.7166 16.6583C15.7999 17.35 15.0582 17.8333 14.4666 17.475L11.5832 15.7583C11.3832 15.6417 11.3332 15.3917 11.4416 15.1917C11.8582 14.425 12.0832 13.5583 12.0832 12.6917C12.0832 9.64166 9.46658 7.15832 6.24991 7.15832C5.59158 7.15832 4.94991 7.25832 4.34991 7.45832C4.04158 7.55832 3.74158 7.27499 3.81658 6.95832C4.57491 3.92499 7.49158 1.66666 10.9749 1.66666C15.0416 1.66666 18.3332 4.74166 18.3332 8.53332C18.3332 10.7833 17.1749 12.775 15.3916 14.025Z" fill="#580A88"/>
<path d="M10.8334 12.6917C10.8334 13.6833 10.4667 14.6 9.85008 15.325C9.02508 16.325 7.71675 16.9667 6.25008 16.9667L4.07508 18.2583C3.70841 18.4833 3.24175 18.175 3.29175 17.75L3.50008 16.1083C2.38341 15.3333 1.66675 14.0917 1.66675 12.6917C1.66675 11.225 2.45008 9.93332 3.65008 9.16666C4.39175 8.68333 5.28341 8.40833 6.25008 8.40833C8.78341 8.40833 10.8334 10.325 10.8334 12.6917Z" fill="#580A88"/>
</svg>
