<svg width="30" height="30" viewBox="0 0 30 30" fill="none" xmlns="http://www.w3.org/2000/svg">
<path d="M14.0624 10.1V13.675L12.7999 13.2375C12.1624 13.0125 11.7749 12.8 11.7749 11.7125C11.7749 10.825 12.4374 10.1 13.2499 10.1H14.0624V10.1Z" fill="#580A88"/>
<path d="M18.225 18.2875C18.225 19.175 17.5625 19.9 16.75 19.9H15.9375V16.325L17.2 16.7625C17.8375 16.9875 18.225 17.2 18.225 18.2875Z" fill="#580A88"/>
<path d="M20.2375 2.5H9.7625C5.2125 2.5 2.5 5.2125 2.5 9.7625V20.2375C2.5 24.7875 5.2125 27.5 9.7625 27.5H20.2375C24.7875 27.5 27.5 24.7875 27.5 20.2375V9.7625C27.5 5.2125 24.7875 2.5 20.2375 2.5ZM17.825 15C18.8 15.3375 20.1 16.05 20.1 18.2875C20.1 20.2125 18.6 21.775 16.75 21.775H15.9375V22.5C15.9375 23.0125 15.5125 23.4375 15 23.4375C14.4875 23.4375 14.0625 23.0125 14.0625 22.5V21.775H13.6125C11.5625 21.775 9.9 20.0375 9.9 17.9125C9.9 17.4 10.3125 16.975 10.8375 16.975C11.35 16.975 11.775 17.4 11.775 17.9125C11.775 19.0125 12.6 19.9 13.6125 19.9H14.0625V15.6625L12.175 15C11.2 14.6625 9.9 13.95 9.9 11.7125C9.9 9.7875 11.4 8.225 13.25 8.225H14.0625V7.5C14.0625 6.9875 14.4875 6.5625 15 6.5625C15.5125 6.5625 15.9375 6.9875 15.9375 7.5V8.225H16.3875C18.4375 8.225 20.1 9.9625 20.1 12.0875C20.1 12.6 19.6875 13.025 19.1625 13.025C18.65 13.025 18.225 12.6 18.225 12.0875C18.225 10.9875 17.4 10.1 16.3875 10.1H15.9375V14.3375L17.825 15Z" fill="#580A88"/>
</svg>
