<svg width="34" height="34" viewBox="0 0 34 34" fill="none" xmlns="http://www.w3.org/2000/svg">
<path d="M27.2566 7.90504H26.6899L21.9016 3.11671C21.5191 2.73421 20.8958 2.73421 20.4991 3.11671C20.1166 3.49921 20.1166 4.12254 20.4991 4.51921L23.8849 7.90504H10.1149L13.5008 4.51921C13.8833 4.13671 13.8833 3.51338 13.5008 3.11671C13.1183 2.73421 12.4949 2.73421 12.0983 3.11671L7.32409 7.90504H6.75742C5.48242 7.90504 2.83325 7.90504 2.83325 11.5317C2.83325 12.9059 3.11659 13.8125 3.71159 14.4075C4.05159 14.7617 4.46242 14.9459 4.90159 15.045C5.31242 15.1442 5.75159 15.1584 6.17659 15.1584H27.8233C28.2624 15.1584 28.6733 15.13 29.0699 15.045C30.2599 14.7617 31.1666 13.9117 31.1666 11.5317C31.1666 7.90504 28.5174 7.90504 27.2566 7.90504Z" fill="#292D32"/>
<path d="M27.0441 17H6.95574C6.07741 17 5.41158 17.7792 5.55324 18.6433L6.74324 25.925C7.13991 28.3617 8.20241 31.1667 12.9199 31.1667H20.8674C25.6416 31.1667 26.4916 28.7725 27.0016 26.095L28.4324 18.6858C28.6024 17.8075 27.9366 17 27.0441 17ZM21.0799 22.7375L16.4757 26.9875C16.2774 27.1717 16.0224 27.2708 15.7532 27.2708C15.4841 27.2708 15.2149 27.1717 15.0024 26.9592L12.8774 24.8342C12.4666 24.4233 12.4666 23.7433 12.8774 23.3325C13.3024 22.9217 13.9682 22.9217 14.3932 23.3325L15.7957 24.735L19.6491 21.1792C20.0741 20.7825 20.7541 20.8108 21.1507 21.2358C21.5474 21.675 21.5191 22.3408 21.0799 22.7375Z" fill="#292D32"/>
</svg>
