<svg width="31" height="32" viewBox="0 0 31 32" fill="none" xmlns="http://www.w3.org/2000/svg">
  <path fill-rule="evenodd" clip-rule="evenodd" 
        d="M0 23.3535C3.21562e-06 22.7441 0.239793 22.1609 0.664385 21.7376L2.25927 20.1475C2.86639 19.5422 3.20815 18.7075 3.20562 17.8362L3.19095 12.7914C3.17042 5.7331 8.70773 0 15.5454 0C22.3687 0 27.9 5.70974 27.9 12.7531L27.9 17.8745C27.9 18.7232 28.2266 19.5371 28.808 20.1373L30.358 21.7373C30.7691 22.1616 31 22.7371 31 23.3373C31 24.5869 30.0186 25.6 28.808 25.6H21.7C21.7 29.1346 18.9242 32 15.5 32C12.0758 32 9.3 29.1346 9.3 25.6H2.17632C0.974373 25.6 0 24.5942 0 23.3535ZM12.4 25.6C12.4 27.3673 13.7879 28.8 15.5 28.8C17.2121 28.8 18.6 27.3673 18.6 25.6H12.4ZM24.8 17.8745C24.8 19.5719 25.4532 21.1998 26.6159 22.4L4.46168 22.4C5.64544 21.1936 6.3106 19.5457 6.3056 17.8266L6.29093 12.7818C6.27556 7.49456 10.4234 3.2 15.5454 3.2C20.6566 3.2 24.8 7.47706 24.8 12.7531L24.8 17.8745Z" 
        fill="#35383F" 
        stroke="#35383F" 
        stroke-width="0.1"/>  <!-- Adjust the stroke-width as needed -->
</svg>
