<svg width="35" height="34" viewBox="0 0 35 34" fill="none" xmlns="http://www.w3.org/2000/svg">
  <path d="M2 8.414H33V14.8278L31.9162 15.5005C30.1981 16.5669 28.0519 16.5669 26.3338 15.5005L25.25 14.8278L24.1662 15.5005C22.4481 16.5669 20.3019 16.5669 18.5838 15.5005L17.5 14.8278L16.4162 15.5005C14.6981 16.5669 12.5519 16.5669 10.8338 15.5005L9.75 14.8278L8.66616 15.5005C6.94814 16.5669 4.80187 16.5669 3.08386 15.5005L2 14.8278V8.414Z" stroke="#35383F" stroke-width="3" stroke-linecap="round" stroke-linejoin="round"/>
  <path d="M5 16.8276V32H30V16.4828" stroke="#35383F" stroke-width="3" stroke-linecap="round" stroke-linejoin="round"/>
  <path d="M5.09961 8.27125V2H29.8996V8.41379" stroke="#35383F" stroke-width="3" stroke-linecap="round" stroke-linejoin="round"/>
  <path d="M14 23.7242H21V32H14V23.7242Z" stroke="#35383F" stroke-width="3" stroke-linecap="round" stroke-linejoin="round"/>
</svg>
